{"accessors" : [{"bufferView" : 0, "byteOffset" : 0, "componentType" : 5123, "count" : 3054, "type" : "SCALAR", "max" : [2737], "min" : [0]}, {"bufferView" : 1, "byteOffset" : 0, "componentType" : 5126, "count" : 2738, "type" : "VEC3", "max" : [2.289614200592041, 3.3695945739746094, 1.162735939025879], "min" : [-2.289614200592041, -3.3695945739746094, -1.162735939025879], "name" : "POSITION"}, {"bufferView" : 1, "byteOffset" : 12, "componentType" : 5126, "count" : 2738, "type" : "VEC3", "max" : [1.0000044107437134, 1.0000044107437134, 1.0000044107437134], "min" : [-1.0000044107437134, -1.0000044107437134, -1.0000044107437134], "name" : "NORMAL"}, {"bufferView" : 1, "byteOffset" : 24, "componentType" : 5126, "count" : 2738, "type" : "VEC2", "max" : [0.875, 1], "min" : [0.125, 0], "name" : "TEXCOORD_0"}, {"bufferView" : 0, "byteOffset" : 6108, "componentType" : 5123, "count" : 564, "type" : "SCALAR", "max" : [479], "min" : [0]}, {"bufferView" : 2, "byteOffset" : 0, "componentType" : 5126, "count" : 480, "type" : "VEC3", "max" : [1, 0.9999999403953552, 1], "min" : [-1, -1, -1], "name" : "POSITION"}, {"bufferView" : 2, "byteOffset" : 12, "componentType" : 5126, "count" : 480, "type" : "VEC3", "max" : [0.9238806962966919, 1.0000044107437134, 0.9238806962966919], "min" : [-0.9238806962966919, -1.0000044107437134, -0.9238806962966919], "name" : "NORMAL"}, {"bufferView" : 2, "byteOffset" : 24, "componentType" : 5126, "count" : 480, "type" : "VEC2", "max" : [1, 1], "min" : [0, 0.009999990463256836], "name" : "TEXCOORD_0"}, {"bufferView" : 0, "byteOffset" : 7236, "componentType" : 5123, "count" : 5043, "type" : "SCALAR", "max" : [4378], "min" : [0]}, {"bufferView" : 3, "byteOffset" : 0, "componentType" : 5126, "count" : 4379, "type" : "VEC3", "max" : [11.615056991577148, 3.994344472885132, 1.2062424421310425], "min" : [-14.088370323181152, -1.4488115310668945, -1.1191192865371704], "name" : "POSITION"}, {"bufferView" : 3, "byteOffset" : 12, "componentType" : 5126, "count" : 4379, "type" : "VEC3", "max" : [1.0000044107437134, 1.0000044107437134, 1.0000044107437134], "min" : [-1.0000044107437134, -1.0000044107437134, -1.0000044107437134], "name" : "NORMAL"}, {"bufferView" : 3, "byteOffset" : 24, "componentType" : 5126, "count" : 4379, "type" : "VEC2", "max" : [1.0000001192092896, 1], "min" : [0, 0], "name" : "TEXCOORD_0"}, {"bufferView" : 0, "byteOffset" : 17324, "componentType" : 5123, "count" : 3969, "type" : "SCALAR", "max" : [3487], "min" : [0]}, {"bufferView" : 4, "byteOffset" : 0, "componentType" : 5126, "count" : 3488, "type" : "VEC3", "max" : [9.061782836914062, 2.059372663497925, 2.009671926498413], "min" : [-11.936955451965332, -7.262763023376465, -2.009671449661255], "name" : "POSITION"}, {"bufferView" : 4, "byteOffset" : 12, "componentType" : 5126, "count" : 3488, "type" : "VEC3", "max" : [1.0000044107437134, 1.0000044107437134, 1.0000044107437134], "min" : [-1.0000044107437134, -1.0000044107437134, -1.0000044107437134], "name" : "NORMAL"}, {"bufferView" : 4, "byteOffset" : 24, "componentType" : 5126, "count" : 3488, "type" : "VEC2", "max" : [1, 1], "min" : [0, 0], "name" : "TEXCOORD_0"}, {"bufferView" : 0, "byteOffset" : 25264, "componentType" : 5123, "count" : 468, "type" : "SCALAR", "max" : [409], "min" : [0]}, {"bufferView" : 5, "byteOffset" : 0, "componentType" : 5126, "count" : 410, "type" : "VEC3", "max" : [4.34417724609375, 1.9629406929016113, 1.0000019073486328], "min" : [-5.45578670501709, -0.535731315612793, -0.9999980926513672], "name" : "POSITION"}, {"bufferView" : 5, "byteOffset" : 12, "componentType" : 5126, "count" : 410, "type" : "VEC3", "max" : [1.0000044107437134, 1.0000044107437134, 1.0000044107437134], "min" : [-1.0000044107437134, -1.0000044107437134, -1.0000044107437134], "name" : "NORMAL"}, {"bufferView" : 5, "byteOffset" : 24, "componentType" : 5126, "count" : 410, "type" : "VEC2", "max" : [0.875, 1], "min" : [0.125, 0], "name" : "TEXCOORD_0"}, {"bufferView" : 0, "byteOffset" : 26200, "componentType" : 5123, "count" : 258, "type" : "SCALAR", "max" : [221], "min" : [0]}, {"bufferView" : 6, "byteOffset" : 0, "componentType" : 5126, "count" : 222, "type" : "VEC3", "max" : [10.628307342529297, 2.7521438598632812, 1.4988785982131958], "min" : [-1.000000238418579, -1, -1], "name" : "POSITION"}, {"bufferView" : 6, "byteOffset" : 12, "componentType" : 5126, "count" : 222, "type" : "VEC3", "max" : [1.0000044107437134, 1.0000044107437134, 1.0000044107437134], "min" : [-1.0000044107437134, -1.0000044107437134, -1.0000044107437134], "name" : "NORMAL"}, {"bufferView" : 6, "byteOffset" : 24, "componentType" : 5126, "count" : 222, "type" : "VEC2", "max" : [1, 1], "min" : [0, 0], "name" : "TEXCOORD_0"}, {"bufferView" : 0, "byteOffset" : 26716, "componentType" : 5123, "count" : 402, "type" : "SCALAR", "max" : [341], "min" : [0]}, {"bufferView" : 7, "byteOffset" : 0, "componentType" : 5126, "count" : 342, "type" : "VEC3", "max" : [5.564947605133057, 1.295375108718872, 2.5119729042053223], "min" : [3.603827953338623, -0.6657441258430481, 1.4988778829574585], "name" : "POSITION"}, {"bufferView" : 7, "byteOffset" : 12, "componentType" : 5126, "count" : 342, "type" : "VEC3", "max" : [0.9238806962966919, 0.9238806962966919, 1.0000044107437134], "min" : [-0.9238806962966919, -0.9238806962966919, -1.0000044107437134], "name" : "NORMAL"}, {"bufferView" : 7, "byteOffset" : 24, "componentType" : 5126, "count" : 342, "type" : "VEC2", "max" : [1, 1], "min" : [0, 0.009999990463256836], "name" : "TEXCOORD_0"}, {"bufferView" : 0, "byteOffset" : 27520, "componentType" : 5123, "count" : 288, "type" : "SCALAR", "max" : [253], "min" : [0]}, {"bufferView" : 8, "byteOffset" : 0, "componentType" : 5126, "count" : 254, "type" : "VEC3", "max" : [8.596992492675781, 1, 14.197636604309082], "min" : [-2.541660785675049, -1, -3.793999671936035], "name" : "POSITION"}, {"bufferView" : 8, "byteOffset" : 12, "componentType" : 5126, "count" : 254, "type" : "VEC3", "max" : [0.9238806962966919, 1.0000044107437134, 0.9986826181411743], "min" : [-0.9238806962966919, -1.0000044107437134, -0.9238806962966919], "name" : "NORMAL"}, {"bufferView" : 8, "byteOffset" : 24, "componentType" : 5126, "count" : 254, "type" : "VEC2", "max" : [1, 1], "min" : [0, 0], "name" : "TEXCOORD_0"}, {"bufferView" : 0, "byteOffset" : 28096, "componentType" : 5123, "count" : 288, "type" : "SCALAR", "max" : [247], "min" : [0]}, {"bufferView" : 9, "byteOffset" : 0, "componentType" : 5126, "count" : 248, "type" : "VEC3", "max" : [2.2944228649139404, 1, 8.37942886352539], "min" : [-1.6371420621871948, -9.063464164733887, -1.034825325012207], "name" : "POSITION"}, {"bufferView" : 9, "byteOffset" : 12, "componentType" : 5126, "count" : 248, "type" : "VEC3", "max" : [1.0000044107437134, 1.0000044107437134, 1.0000044107437134], "min" : [-1.0000044107437134, -1.0000044107437134, -1.0000044107437134], "name" : "NORMAL"}, {"bufferView" : 9, "byteOffset" : 24, "componentType" : 5126, "count" : 248, "type" : "VEC2", "max" : [1, 1], "min" : [0, 0], "name" : "TEXCOORD_0"}, {"bufferView" : 0, "byteOffset" : 28672, "componentType" : 5123, "count" : 1104, "type" : "SCALAR", "max" : [949], "min" : [0]}, {"bufferView" : 10, "byteOffset" : 0, "componentType" : 5126, "count" : 950, "type" : "VEC3", "max" : [1.000000238418579, 0.6285194754600525, 1.0000001192092896], "min" : [-1, -3.7374088764190674, -1.0000001192092896], "name" : "POSITION"}, {"bufferView" : 10, "byteOffset" : 12, "componentType" : 5126, "count" : 950, "type" : "VEC3", "max" : [1.0000044107437134, 1.0000044107437134, 1.0000044107437134], "min" : [-1.0000044107437134, -1.0000044107437134, -1.0000044107437134], "name" : "NORMAL"}, {"bufferView" : 10, "byteOffset" : 24, "componentType" : 5126, "count" : 950, "type" : "VEC2", "max" : [1, 1], "min" : [0, 0.009999990463256836], "name" : "TEXCOORD_0"}, {"bufferView" : 0, "byteOffset" : 30880, "componentType" : 5123, "count" : 156, "type" : "SCALAR", "max" : [130], "min" : [0]}, {"bufferView" : 11, "byteOffset" : 0, "componentType" : 5126, "count" : 131, "type" : "VEC3", "max" : [2.0511207580566406, 3.2023673057556152, 3.5376293659210205], "min" : [-0.35355305671691895, -1.0000009536743164, -0.14644646644592285], "name" : "POSITION"}, {"bufferView" : 11, "byteOffset" : 12, "componentType" : 5126, "count" : 131, "type" : "VEC3", "max" : [0.9238806962966919, 1.0000044107437134, 0.9238806962966919], "min" : [-0.9238806962966919, -1.0000044107437134, -0.9238806962966919], "name" : "NORMAL"}, {"bufferView" : 11, "byteOffset" : 24, "componentType" : 5126, "count" : 131, "type" : "VEC2", "max" : [1, 1], "min" : [0, 0.009999990463256836], "name" : "TEXCOORD_0"}, {"bufferView" : 0, "byteOffset" : 31192, "componentType" : 5123, "count" : 486, "type" : "SCALAR", "max" : [421], "min" : [0]}, {"bufferView" : 12, "byteOffset" : 0, "componentType" : 5126, "count" : 422, "type" : "VEC3", "max" : [1.533452033996582, 1.0137571096420288, 1], "min" : [-2.9266161918640137, 0.23709756135940552, -1.000000238418579], "name" : "POSITION"}, {"bufferView" : 12, "byteOffset" : 12, "componentType" : 5126, "count" : 422, "type" : "VEC3", "max" : [0.9238806962966919, 1.0000044107437134, 1.0000044107437134], "min" : [-0.9238806962966919, -1.0000044107437134, -1.0000044107437134], "name" : "NORMAL"}, {"bufferView" : 12, "byteOffset" : 24, "componentType" : 5126, "count" : 422, "type" : "VEC2", "max" : [1, 1], "min" : [0, 0.009999990463256836], "name" : "TEXCOORD_0"}, {"bufferView" : 0, "byteOffset" : 32164, "componentType" : 5123, "count" : 660, "type" : "SCALAR", "max" : [574], "min" : [0]}, {"bufferView" : 13, "byteOffset" : 0, "componentType" : 5126, "count" : 575, "type" : "VEC3", "max" : [6.6653523445129395, 6.709199905395508, 1], "min" : [-1, -3.3284096717834473, -1], "name" : "POSITION"}, {"bufferView" : 13, "byteOffset" : 12, "componentType" : 5126, "count" : 575, "type" : "VEC3", "max" : [1.0000044107437134, 1.0000044107437134, 1.0000044107437134], "min" : [-1.0000044107437134, -1.0000044107437134, -1.0000044107437134], "name" : "NORMAL"}, {"bufferView" : 13, "byteOffset" : 24, "componentType" : 5126, "count" : 575, "type" : "VEC2", "max" : [1, 1], "min" : [0, 0], "name" : "TEXCOORD_0"}], "asset" : {"generator" : "Aspose.3D 23.11.1", "version" : "2.0"}, "buffers" : [{"uri" : "data:application/octet-stream;base64,", "byteLength" : 569220}], "bufferViews" : [{"buffer" : 0, "byteOffset" : 0, "byteLength" : 33484, "target" : 34963}, {"buffer" : 0, "byteOffset" : 33488, "byteLength" : 97728, "byteStride" : 32, "target" : 34962}, {"buffer" : 0, "byteOffset" : 131220, "byteLength" : 18048, "byteStride" : 32, "target" : 34962}, {"buffer" : 0, "byteOffset" : 149272, "byteLength" : 161376, "byteStride" : 32, "target" : 34962}, {"buffer" : 0, "byteOffset" : 310652, "byteLength" : 127008, "byteStride" : 32, "target" : 34962}, {"buffer" : 0, "byteOffset" : 437664, "byteLength" : 14976, "byteStride" : 32, "target" : 34962}, {"buffer" : 0, "byteOffset" : 452644, "byteLength" : 8256, "byteStride" : 32, "target" : 34962}, {"buffer" : 0, "byteOffset" : 460904, "byteLength" : 12864, "byteStride" : 32, "target" : 34962}, {"buffer" : 0, "byteOffset" : 473772, "byteLength" : 9216, "byteStride" : 32, "target" : 34962}, {"buffer" : 0, "byteOffset" : 482992, "byteLength" : 9216, "byteStride" : 32, "target" : 34962}, {"buffer" : 0, "byteOffset" : 492212, "byteLength" : 35328, "byteStride" : 32, "target" : 34962}, {"buffer" : 0, "byteOffset" : 527544, "byteLength" : 4992, "byteStride" : 32, "target" : 34962}, {"buffer" : 0, "byteOffset" : 532540, "byteLength" : 15552, "byteStride" : 32, "target" : 34962}, {"buffer" : 0, "byteOffset" : 548096, "byteLength" : 21120, "byteStride" : 32, "target" : 34962}], "materials" : [{"name" : "material", "pbrMetallicRoughness" : {"baseColorFactor" : [0.03189599886536598, 0.03189599886536598, 0.03189599886536598, 1], "metallicFactor" : 1, "roughnessFactor" : 0.30000001192092896}, "emissiveFactor" : [0, 0, 0], "alphaMode" : "OPAQUE", "doubleSided" : true}, {"name" : "material_1", "pbrMetallicRoughness" : {"baseColorFactor" : [0.09530749917030334, 0.09530749917030334, 0.09530749917030334, 1], "metallicFactor" : 1, "roughnessFactor" : 0.30000001192092896}, "emissiveFactor" : [0, 0, 0], "alphaMode" : "OPAQUE", "doubleSided" : true}, {"name" : "material", "pbrMetallicRoughness" : {"baseColorFactor" : [0.03189599886536598, 0.03189599886536598, 0.03189599886536598, 1], "metallicFactor" : 1, "roughnessFactor" : 0.30000001192092896}, "emissiveFactor" : [0, 0, 0], "alphaMode" : "OPAQUE", "doubleSided" : true}, {"name" : "material_3", "pbrMetallicRoughness" : {"baseColorFactor" : [0, 0, 0, 1], "metallicFactor" : 0, "roughnessFactor" : 0.699999988079071}, "emissiveFactor" : [0, 0, 0], "alphaMode" : "OPAQUE", "doubleSided" : true}, {"name" : "material", "pbrMetallicRoughness" : {"baseColorFactor" : [0.03189599886536598, 0.03189599886536598, 0.03189599886536598, 1], "metallicFactor" : 1, "roughnessFactor" : 0.30000001192092896}, "emissiveFactor" : [0, 0, 0], "alphaMode" : "OPAQUE", "doubleSided" : true}, {"name" : "material_4", "pbrMetallicRoughness" : {"baseColorFactor" : [1, 1, 1, 1], "metallicFactor" : 1, "roughnessFactor" : 0.30000001192092896}, "emissiveFactor" : [0, 0, 0], "alphaMode" : "OPAQUE", "doubleSided" : true}, {"name" : "material_3", "pbrMetallicRoughness" : {"baseColorFactor" : [0, 0, 0, 1], "metallicFactor" : 0, "roughnessFactor" : 0.699999988079071}, "emissiveFactor" : [0, 0, 0], "alphaMode" : "OPAQUE", "doubleSided" : true}, {"name" : "material", "pbrMetallicRoughness" : {"baseColorFactor" : [0.03189599886536598, 0.03189599886536598, 0.03189599886536598, 1], "metallicFactor" : 1, "roughnessFactor" : 0.30000001192092896}, "emissiveFactor" : [0, 0, 0], "alphaMode" : "OPAQUE", "doubleSided" : true}, {"name" : "material", "pbrMetallicRoughness" : {"baseColorFactor" : [0.03189599886536598, 0.03189599886536598, 0.03189599886536598, 1], "metallicFactor" : 1, "roughnessFactor" : 0.30000001192092896}, "emissiveFactor" : [0, 0, 0], "alphaMode" : "OPAQUE", "doubleSided" : true}, {"name" : "material", "pbrMetallicRoughness" : {"baseColorFactor" : [0.03189599886536598, 0.03189599886536598, 0.03189599886536598, 1], "metallicFactor" : 1, "roughnessFactor" : 0.30000001192092896}, "emissiveFactor" : [0, 0, 0], "alphaMode" : "OPAQUE", "doubleSided" : true}, {"name" : "material", "pbrMetallicRoughness" : {"baseColorFactor" : [0.03189599886536598, 0.03189599886536598, 0.03189599886536598, 1], "metallicFactor" : 1, "roughnessFactor" : 0.30000001192092896}, "emissiveFactor" : [0, 0, 0], "alphaMode" : "OPAQUE", "doubleSided" : true}, {"name" : "material", "pbrMetallicRoughness" : {"baseColorFactor" : [0.03189599886536598, 0.03189599886536598, 0.03189599886536598, 1], "metallicFactor" : 1, "roughnessFactor" : 0.30000001192092896}, "emissiveFactor" : [0, 0, 0], "alphaMode" : "OPAQUE", "doubleSided" : true}, {"name" : "material_3", "pbrMetallicRoughness" : {"baseColorFactor" : [0, 0, 0, 1], "metallicFactor" : 0, "roughnessFactor" : 0.699999988079071}, "emissiveFactor" : [0, 0, 0], "alphaMode" : "OPAQUE", "doubleSided" : true}], "meshes" : [{"primitives" : [{"attributes" : {"POSITION" : 1, "NORMAL" : 2, "TEXCOORD_0" : 3}, "indices" : 0, "material" : 0, "mode" : 4}]}, {"primitives" : [{"attributes" : {"POSITION" : 5, "NORMAL" : 6, "TEXCOORD_0" : 7}, "indices" : 4, "material" : 1, "mode" : 4}]}, {"primitives" : [{"attributes" : {"POSITION" : 9, "NORMAL" : 10, "TEXCOORD_0" : 11}, "indices" : 8, "material" : 2, "mode" : 4}]}, {"primitives" : [{"attributes" : {"POSITION" : 13, "NORMAL" : 14, "TEXCOORD_0" : 15}, "indices" : 12, "material" : 3, "mode" : 4}]}, {"primitives" : [{"attributes" : {"POSITION" : 17, "NORMAL" : 18, "TEXCOORD_0" : 19}, "indices" : 16, "material" : 4, "mode" : 4}]}, {"primitives" : [{"attributes" : {"POSITION" : 21, "NORMAL" : 22, "TEXCOORD_0" : 23}, "indices" : 20, "material" : 5, "mode" : 4}]}, {"primitives" : [{"attributes" : {"POSITION" : 25, "NORMAL" : 26, "TEXCOORD_0" : 27}, "indices" : 24, "material" : 6, "mode" : 4}]}, {"primitives" : [{"attributes" : {"POSITION" : 29, "NORMAL" : 30, "TEXCOORD_0" : 31}, "indices" : 28, "material" : 7, "mode" : 4}]}, {"primitives" : [{"attributes" : {"POSITION" : 33, "NORMAL" : 34, "TEXCOORD_0" : 35}, "indices" : 32, "material" : 8, "mode" : 4}]}, {"primitives" : [{"attributes" : {"POSITION" : 37, "NORMAL" : 38, "TEXCOORD_0" : 39}, "indices" : 36, "material" : 9, "mode" : 4}]}, {"primitives" : [{"attributes" : {"POSITION" : 41, "NORMAL" : 42, "TEXCOORD_0" : 43}, "indices" : 40, "material" : 10, "mode" : 4}]}, {"primitives" : [{"attributes" : {"POSITION" : 45, "NORMAL" : 46, "TEXCOORD_0" : 47}, "indices" : 44, "material" : 11, "mode" : 4}]}, {"primitives" : [{"attributes" : {"POSITION" : 49, "NORMAL" : 50, "TEXCOORD_0" : 51}, "indices" : 48, "material" : 12, "mode" : 4}]}], "nodes" : [{"mesh" : 0, "name" : "Object_8"}, {"children" : [0], "matrix" : [0.32282747265111117, -0.030839436258231358, 0, 0, 0.030839436258231358, 0.32282747265111117, 0, 0, 0, 0, 0.12271657586097717, 0, -0.6414105296134949, -1.0848345756530762, 0, 1], "name" : "7.62x39 mag.002_1"}, {"mesh" : 1, "name" : "Object_10"}, {"children" : [2], "matrix" : [-8.029132774328696E-16, -6.735324742379589E-09, 0.05649999901652336, 0, -0.19499999284744263, 2.3245809224192777E-08, 1.3855582839102185E-15, 0, -6.735324742379589E-09, -0.05649999901652296, -6.735325143836228E-09, 0, -0.40641283988952637, 0.23975349962711334, 0.4358682632446289, 1], "name" : "76239_2"}, {"mesh" : 2, "name" : "Object_12"}, {"mesh" : 3, "name" : "Object_13"}, {"children" : [4, 5], "matrix" : [0.2076617330312729, 0, 0, 0, 0, 0.2076617330312729, 0, 0, 0, 0, 0.17622634768486023, 0, 0, 0, 0, 1], "name" : "Cube.001_3"}, {"mesh" : 4, "name" : "Object_27"}, {"children" : [7], "matrix" : [0.1382606029510498, 0, 0, 0, 0, 0.1382606029510498, 0, 0, 0, 0, 0.008085102774202824, 0, 0.537827730178833, -0.06369218230247498, 0.18431143462657928, 1], "name" : "Cube.004_10"}, {"mesh" : 5, "name" : "Object_29"}, {"mesh" : 6, "name" : "Object_30"}, {"children" : [9, 10], "matrix" : [0.10769879072904587, 0, 0, 0, 0, 0.10769879072904587, 0, 0, 0, 0, 0.13657979667186737, 0, -0.8021711111068726, 0.13989461958408356, 0, 1], "name" : "Cube.005_11"}, {"mesh" : 7, "name" : "Object_15"}, {"children" : [12], "matrix" : [0.02616586722433567, 0, 0, 0, 0, -3.5927954632075064E-08, 0.1185951341328348, 0, 0, -0.026165870054005617, -7.926852978269103E-09, 0, 0.21802935004234314, -0.45312660932540894, 0, 1], "name" : "Cylinder.002_4"}, {"mesh" : 8, "name" : "Object_17"}, {"children" : [14], "matrix" : [0.03963946923613548, 0, 0, 0, 0, -1.2008630437191205E-08, 0.0396394716046233, 0, 0, -0.0396394716046233, -1.2008630437191205E-08, 0, 0.8053985834121704, -0.23342932760715485, 0.15042990446090698, 1], "name" : "Cylinder.003_5"}, {"mesh" : 9, "name" : "Object_21"}, {"children" : [16], "matrix" : [3.984749658860166E-09, -0.1164159982075731, 0, 0, 0.1164159982075731, 3.984749658860166E-09, 0, 0, 0, 0, 0.11641599237918854, 0, -2.9256155490875244, 0.08558592945337296, 0, 1], "name" : "Cylinder.004_7"}, {"mesh" : 10, "name" : "Object_23"}, {"children" : [18], "matrix" : [0.08211774910880609, -0.024021363938906637, -4.722722510043125E-09, 0, 1.127967663654281E-10, -2.3801574468507747E-09, 0.015278021567007848, 0, -0.02402136393890709, -0.08211774777608206, -1.2562141923796981E-08, 0, 1.2530732154846191, -0.2511453628540039, 0.1626541167497635, 1], "name" : "Cylinder.005_8"}, {"mesh" : 11, "name" : "Object_25"}, {"children" : [20], "matrix" : [0.10898188501596451, 0, 0, 0, 0, 3.730291004390692E-09, 0.10898189047215934, 0, 0, -0.10898189047215934, 3.730291004390692E-09, 0, 1.0722074508666992, -0.013499079272150993, -0.28520825505256653, 1], "name" : "Cylinder.006_9"}, {"mesh" : 12, "name" : "Object_19"}, {"children" : [22], "matrix" : [-5.6823642410514126E-08, -0.1875700448483311, 0, 0, 0.1875700448483311, -5.6823642410514126E-08, 0, 0, 0, 0, 0.1875700056552887, 0, 2.6587424278259277, 0.013399805873632431, 0, 1], "name" : "s_6"}, {"children" : [1, 3, 6, 8, 11, 13, 15, 17, 19, 21, 23], "matrix" : [1, 0, 0, 0, 0, -3.029462689596585E-07, 0.9999999657714298, 0, 0, -0.9999999657714298, -3.029462689596585E-07, 0, 0, 0, 0, 1], "name" : "GLTF_SceneRootNode"}, {"children" : [24], "name" : "root"}, {"children" : [25], "matrix" : [1, 0, 0, 0, 0, -3.029462689596585E-07, -0.9999999657714298, 0, 0, 0.9999999657714298, -3.029462689596585E-07, 0, 0, 0, 0, 1], "name" : "Sketchfab_model"}], "scene" : 0, "scenes" : [{"nodes" : [26]}]}