# Blender 4.0.2
# www.blender.org
mtllib rocks1.mtl
o Icosphere
v -1.136655 -0.730268 0.525720
v -2.136640 -0.730268 0.850640
v -2.754680 -0.730268 0.000000
v -2.136640 -0.730268 -0.850640
v -1.136655 -0.730268 -0.525720
v -1.896538 0.730268 0.617234
v -2.583855 0.730268 0.104151
v -2.583855 0.730268 -0.525720
v -1.329095 -0.101790 -0.665535
v -1.898782 -0.101797 -0.850640
v -2.153564 0.730268 -0.665532
v -1.231774 0.730268 -0.366032
v -1.069173 -0.153298 0.318040
v -1.069173 -0.153298 -0.318040
v -1.231745 0.730268 -0.365992
v -1.506922 1.276339 0.000000
v -1.339721 0.730268 0.514605
v -1.788622 1.398973 -0.220469
v -1.588276 1.090052 -0.366030
v -1.865149 1.090051 -0.455989
v -2.524624 -0.962441 0.000000
v -2.065553 -0.962436 -0.631851
v -1.322769 -0.962436 -0.390502
v -1.322769 -0.962436 0.390502
v -2.065553 -0.962436 0.631851
v -1.570737 1.340741 0.000000
v -1.788635 1.399016 -0.220428
v -2.094481 1.340739 -0.170173
v -2.128963 1.297724 0.038676
v -1.770791 1.340739 0.275348
vn 0.7802 -0.6255 -0.0000
vn -0.6312 -0.6255 -0.4586
vn 0.2411 -0.6255 0.7421
vn 0.2411 -0.6255 -0.7421
vn 0.8035 0.1162 -0.5838
vn 0.3075 0.1007 0.9462
vn -0.8079 0.0526 0.5870
vn -0.8035 -0.1162 -0.5838
vn -0.3069 0.1162 -0.9446
vn -0.5834 0.2208 0.7816
vn -0.9932 0.1162 -0.0000
vn 0.9932 -0.1162 -0.0000
vn 0.3943 0.5631 0.7263
vn -0.7802 0.6255 -0.0000
vn 0.6312 0.6255 -0.4586
vn 0.3069 -0.1162 -0.9446
vn -0.2411 0.6255 -0.7421
vn 0.9579 0.2753 0.0812
vn 0.3975 0.0622 0.9155
vn 0.2593 0.5441 -0.7979
vn 0.2955 0.2928 -0.9094
vn -0.0000 -1.0000 -0.0000
vn -0.6312 -0.6255 0.4586
vn -0.0846 0.9880 0.1293
vn -0.5193 0.4965 0.6956
vt 0.272728 0.157461
vt 0.296110 0.116961
vt 0.431164 0.116961
vt 0.454546 0.157461
vt 0.659746 0.116961
vt 0.794799 0.116960
vt 0.818182 0.157461
vt 0.636364 0.157461
vt 0.114292 0.116961
vt 0.249346 0.116961
vt 0.090910 0.157461
vt 0.477928 0.116961
vt 0.612982 0.116961
vt 0.493665 0.225217
vt 0.441874 0.314921
vt 0.441865 0.314921
vt 0.418633 0.219664
vt 0.117926 0.325567
vt 1.000000 0.157461
vt 0.836192 0.314921
vt 0.727273 0.314921
vt 0.649037 0.314921
vt 0.597246 0.225216
vt -0.022527 0.348971
vt 0.308641 0.219664
vt 0.253644 0.314921
vt 0.308641 0.410179
vt 0.302155 0.421413
vt 0.243301 0.421413
vt 0.824870 0.413909
vt 0.788755 0.421413
vt 0.418633 0.410179
vt 0.441865 0.314921
vt 0.441874 0.314921
vt 0.478108 0.377682
vt 0.478108 0.431571
vt 0.478103 0.431579
vt 0.425119 0.421413
vt 0.597246 0.225216
vt 0.612802 0.431571
vt 0.612802 0.377682
vt 0.665791 0.421413
vt 0.612806 0.431579
vt 0.308641 0.219664
vt 0.253644 0.314921
vt 0.612802 0.377682
vt 0.550578 0.377682
vt 0.841565 0.116960
vt 0.976618 0.116961
vt 0.120337 0.421413
vt 0.048785 0.426553
s 0
f 1/1/1 24/2/1 23/3/1 5/4/1
f 22/5/2 21/6/2 3/7/2 4/8/2
f 25/9/3 24/10/3 1/1/3 2/11/3
f 23/12/4 22/13/4 4/8/4 5/4/4
f 5/4/5 9/14/5 12/15/5 15/16/5 14/17/5
f 2/11/6 1/1/6 6/18/6
f 3/7/7 2/19/7 7/20/7
f 4/8/8 3/7/8 8/21/8
f 4/8/9 8/21/9 11/22/9 10/23/9
f 2/11/10 6/18/10 7/24/10
f 3/7/11 7/20/11 8/21/11
f 1/1/12 5/4/12 14/17/12 13/25/12
f 6/18/13 17/26/13 16/27/13 26/28/13 30/29/13
f 8/21/14 7/20/14 29/30/14 28/31/14
f 16/32/15 15/33/15 12/34/15 19/35/15 18/36/15 27/37/15 26/38/15
f 5/4/16 4/8/16 10/39/16 9/14/16
f 18/40/17 20/41/17 11/22/17 8/21/17 28/42/17 27/43/17
f 13/44/18 14/17/18 15/16/18 16/32/18 17/26/18
f 1/1/19 13/44/19 17/45/19 6/18/19
f 18/40/20 19/35/20 20/46/20
f 9/14/21 10/39/21 11/22/21 20/46/21 19/47/21 12/34/21
f 21/48/22 22/5/22 23/12/22 24/2/22 25/9/22
f 21/48/23 25/49/23 2/19/23 3/7/23
f 26/28/24 27/37/24 28/42/24 29/30/24 30/50/24
f 7/24/25 6/18/25 30/50/25 29/51/25
o Icosphere.001
v 0.552105 -0.523339 0.525720
v -0.616147 -0.523339 0.850640
v -1.338185 -0.523339 0.000000
v -0.616147 -0.523339 -0.850640
v 0.552105 -0.523339 -0.525720
v 0.029637 0.523339 0.850640
v -0.293255 1.170218 0.000000
v -0.621818 -0.966817 0.000000
v -0.394785 -0.966815 -0.267474
v -0.027442 -0.966815 -0.165306
v -0.027442 -0.966815 0.165306
v -0.394785 -0.966815 0.267474
v -1.241931 -0.018521 0.253557
v -0.868137 -0.018519 0.693929
v -0.533809 0.523339 0.693931
v -0.700972 0.858228 0.253555
v -1.138615 0.523339 -0.018616
v 0.347906 -0.114260 -0.652710
v -0.363755 -0.114266 -0.850640
v -0.293255 1.170218 0.000000
v -0.293255 1.170218 0.000000
v -0.978405 0.460572 -0.581049
v -0.466476 0.628159 -0.450073
v -0.372282 -0.097184 -0.845337
v 0.506182 0.117197 0.401980
v 0.498737 0.221047 0.078251
v 0.178155 0.774349 0.197984
v 0.178155 0.774349 0.197984
v 0.232121 0.523339 0.612092
v -0.876179 -0.002407 -0.688927
v -1.238859 -0.002410 -0.261649
v -1.138615 0.523339 -0.018666
v -0.713985 0.848271 -0.261647
v -0.978456 0.460592 -0.581032
vn 0.6077 -0.7942 -0.0000
vn -0.4806 -0.7763 -0.4079
vn 0.1773 -0.7498 0.6375
vn 0.1773 -0.7498 -0.6375
vn 0.7550 0.5062 -0.4168
vn 0.2644 -0.1631 0.9505
vn -0.2644 0.1631 0.9505
vn -0.9823 0.1873 -0.0000
vn 0.4806 0.7763 0.4079
vn -0.1773 0.7498 0.6375
vn -0.7504 -0.1768 -0.6369
vn 0.9974 0.0715 -0.0000
vn -0.0000 1.0000 -0.0000
vn -0.7504 -0.1768 0.6369
vn 0.2644 -0.1631 -0.9505
vn -0.0000 -1.0000 -0.0000
vn -0.4806 -0.7763 0.4079
vn -0.6899 0.4257 0.5856
vn -0.0137 0.6413 -0.7671
vn -0.6077 0.7942 -0.0000
vn 0.0648 0.4840 -0.8727
vn 0.2743 0.5205 -0.8086
vn 0.8627 0.4800 0.1591
vn 0.7504 0.1768 0.6369
vn -0.8353 0.3590 -0.4164
vn -0.2644 0.1631 -0.9505
vt 0.272728 0.157461
vt 0.335052 0.049512
vt 0.392222 0.049512
vt 0.454546 0.157461
vt 0.698688 0.049512
vt 0.755858 0.049511
vt 0.818182 0.157461
vt 0.636364 0.157461
vt 0.153234 0.049512
vt 0.210404 0.049512
vt 0.090910 0.157461
vt 0.516870 0.049512
vt 0.574040 0.049512
vt 0.490076 0.219002
vt 0.556944 0.472382
vt 0.396329 0.376021
vt 0.340714 0.269445
vt 0.181819 0.314921
vt 0.094128 0.314921
vt 0.047063 0.233405
vt 0.862028 0.233405
vt 0.814963 0.314921
vt 0.814954 0.314921
vt 0.772937 0.235828
vt 0.232807 0.314921
vt 0.286044 0.376021
vt 0.272728 0.472382
vt 0.047064 0.396439
vt 0.094128 0.314921
vt 0.090910 0.472382
vt 0.772937 0.235828
vt 0.681609 0.235829
vt 0.340714 0.269445
vt 0.286044 0.253822
vt 0.439972 0.433113
vt 1.000000 0.157461
vt 0.956154 0.233405
vt 0.600834 0.219001
vt 0.490076 0.219002
vt 0.880506 0.049511
vt 0.937676 0.049512
vt 0.636364 0.472382
vt 0.636698 0.353329
vt 0.701764 0.305478
vt 0.701772 0.305481
vt 0.681609 0.394015
vt 0.772937 0.394015
vt 0.862027 0.396439
vt 0.818182 0.472382
vt 0.701764 0.305478
vt 0.602318 0.221571
vt 0.701772 0.305481
s 0
f 31/52/26 41/53/26 40/54/26 35/55/26
f 39/56/27 38/57/27 33/58/27 34/59/27
f 42/60/28 41/61/28 31/52/28 32/62/28
f 40/63/29 39/64/29 34/59/29 35/55/29
f 35/55/30 48/65/30 51/66/30 57/67/30 56/68/30
f 32/62/31 31/52/31 36/69/31
f 32/62/32 36/69/32 45/70/32 44/71/32
f 33/58/33 43/72/33 47/73/33 62/74/33 61/75/33
f 36/69/34 59/76/34 58/77/34 37/78/34
f 46/79/35 45/80/35 36/69/35 37/81/35
f 34/59/36 33/58/36 61/82/36 60/83/36
f 31/52/37 35/55/37 56/84/37 55/85/37
f 58/86/38 57/86/38 51/66/38 50/66/38 37/66/38
f 33/58/39 32/87/39 44/88/39 43/72/39
f 35/55/40 34/59/40 49/89/40 48/90/40
f 38/91/41 39/56/41 40/63/41 41/53/41 42/60/41
f 38/91/42 42/92/42 32/87/42 33/58/42
f 43/72/43 44/88/43 45/70/43 46/79/43 47/73/43
f 50/93/44 53/94/44 52/95/44 64/96/44 63/97/44 37/93/44
f 63/98/45 62/74/45 47/73/45 46/99/45 37/100/45
f 52/101/46 53/94/46 54/102/46
f 48/65/47 49/89/47 54/102/47 53/94/47 50/66/47 51/66/47
f 55/85/48 56/84/48 57/67/48 58/86/48 59/76/48
f 31/52/49 55/85/49 59/76/49 36/69/49
f 60/83/50 61/82/50 62/74/50 63/98/50 64/96/50
f 34/59/51 60/83/51 64/103/51 52/101/51 54/102/51 49/89/51
o Icosphere.002
v -0.472632 -0.817721 1.036469
v -1.104133 -0.817721 1.361389
v -1.494431 -0.817721 0.510749
v -1.104133 -0.817721 -0.339891
v -0.472632 -0.817721 -0.014971
v -0.755053 -0.322836 1.361389
v -1.386554 -0.322836 -0.014971
v -0.416488 -0.560165 0.762865
v -0.929593 -0.016982 0.510749
v -1.446232 -0.596608 0.745640
v -1.037202 -0.322836 1.216217
v -1.133760 -0.153636 0.745637
v -1.386554 -0.322836 0.454799
v -0.550854 -0.680653 -0.104964
v -1.007450 -0.680657 -0.339891
v -1.211655 -0.322836 -0.104960
v -0.881252 -0.101692 0.275156
v -0.556912 -0.461730 0.305483
v -1.104133 -0.817721 1.361389
v -1.038053 -0.329129 1.218063
v -1.441883 -0.599419 0.753466
v -1.261455 -0.961863 0.510749
v -1.032142 -0.961861 0.010964
v -0.661110 -0.961861 0.201868
v -0.661110 -0.961861 0.819630
v -1.032142 -0.961861 1.010534
vn 0.6075 -0.7943 -0.0000
vn -0.5114 -0.8267 -0.2347
vn 0.2100 -0.8885 0.4081
vn 0.2100 -0.8885 -0.4081
vn 0.9771 -0.2130 -0.0000
vn 0.4354 -0.3071 0.8462
vn -0.8828 -0.2379 0.4051
vn -0.8828 -0.2379 -0.4051
vn -0.4354 0.3071 -0.8462
vn 0.8828 0.2379 0.4051
vn -0.1885 0.9112 0.3663
vn -0.5562 0.8310 -0.0000
vn -0.1885 0.9112 -0.3663
vn 0.7438 0.6629 -0.0857
vn 0.6958 0.7094 0.1123
vn 0.4354 -0.3071 -0.8462
vn -0.4354 0.3071 0.8462
vn -0.9771 0.2130 -0.0000
vn 0.4548 0.6554 -0.6030
vn 0.9014 0.3875 -0.1934
vn -0.7988 0.2663 0.5394
vn -0.7666 0.5350 0.3550
vn -0.0000 -1.0000 -0.0000
vn -0.5114 -0.8267 0.2347
vt 0.272728 0.157461
vt 0.310224 0.092515
vt 0.417050 0.092515
vt 0.454546 0.157461
vt 0.673860 0.092515
vt 0.780685 0.092514
vt 0.818182 0.157461
vt 0.636364 0.157461
vt 0.128406 0.092515
vt 0.235232 0.092515
vt 0.090910 0.157461
vt 0.492042 0.092515
vt 0.598868 0.092515
vt 0.320040 0.239409
vt 0.181819 0.314921
vt 1.000000 0.157461
vt 0.860595 0.226920
vt 0.858800 0.227814
vt 0.727273 0.314921
vt 0.676917 0.314921
vt 0.611186 0.201072
vt 0.050292 0.402029
vt 0.100584 0.314921
vt 0.090910 0.472382
vt 0.808507 0.314921
vt 0.858800 0.402029
vt 0.818182 0.472382
vt 0.611186 0.428772
vt 0.636364 0.472382
vt 0.413534 0.270729
vt 0.479724 0.428772
vt 0.454546 0.472382
vt 0.272728 0.472382
vt 0.479725 0.201073
vt 0.100584 0.314921
vt 0.100461 0.312919
vt 0.858800 0.227814
vt 0.479725 0.201073
vt 0.860595 0.226920
vt 0.112019 0.312919
vt 0.855679 0.092514
vt 0.962504 0.092515
s 0
f 65/104/52 89/105/52 88/106/52 69/107/52
f 87/108/53 86/109/53 67/110/53 68/111/53
f 90/112/54 89/113/54 65/104/54 66/114/54
f 88/115/55 87/116/55 68/111/55 69/107/55
f 65/104/56 69/107/56 72/117/56
f 66/114/57 65/104/57 70/118/57
f 67/110/58 66/119/58 83/119/58 85/120/58 74/121/58
f 68/111/59 67/110/59 71/122/59
f 68/111/60 71/122/60 80/123/60 79/124/60
f 65/104/61 72/117/61 70/118/61
f 76/125/62 75/126/62 70/118/62 73/127/62
f 71/122/63 77/128/63 76/129/63 73/130/63
f 81/131/64 80/123/64 71/122/64 73/132/64
f 72/117/65 82/133/65 81/134/65 73/135/65
f 70/118/66 72/117/66 73/136/66
f 69/107/67 68/111/67 79/124/67 78/137/67
f 66/114/68 70/118/68 75/138/68 84/139/68 83/114/68
f 67/110/69 74/140/69 77/128/69 71/122/69
f 78/141/70 79/124/70 80/123/70 81/131/70 82/133/70
f 69/107/71 78/141/71 82/133/71 72/117/71
f 83/119/72 84/139/72 85/142/72
f 74/140/73 85/142/73 84/143/73 75/138/73 76/125/73 77/128/73
f 86/144/74 87/108/74 88/115/74 89/105/74 90/112/74
f 86/144/75 90/145/75 66/119/75 67/110/75
o Icosphere.003
v -0.862947 0.750613 -0.766370
v -0.385546 0.528877 -0.159448
v -0.903146 0.304746 0.454029
v -1.700445 0.387968 0.226239
v -1.675593 0.663527 -0.528004
v -0.499858 1.358294 -0.068369
v -1.348123 1.150604 0.766370
v -1.007631 0.149340 0.041040
v -1.393322 0.189600 -0.069150
v -1.381299 0.322900 -0.434013
v -0.988184 0.365028 -0.549322
v -0.757242 0.257764 -0.255725
v -1.069016 1.142331 -0.621724
v -1.505325 1.095574 -0.493746
v -1.585824 1.476135 -0.124653
v -1.199262 1.758091 -0.024526
v -0.922063 1.482739 -0.269872
v -0.719059 0.771859 0.491067
v -0.460615 0.883772 0.184752
v -0.511895 1.317538 0.133166
v -0.820117 1.567143 0.437097
v -1.139900 1.172918 0.705293
v -1.793057 1.218848 0.010582
v -1.883744 1.065399 0.238303
v -1.533135 1.236536 0.531163
v -1.381470 1.696231 0.274468
v -1.713439 1.420876 0.026600
v -1.009042 1.811594 0.279935
v -1.136765 1.851047 0.222502
v -1.216634 1.816462 0.317164
v -1.142968 1.782247 0.410816
v -1.017572 1.795684 0.374034
vn -0.2123 -0.4261 -0.8794
vn -0.2051 -0.8978 0.3897
vn 0.5562 -0.5375 -0.6339
vn -0.6912 -0.6711 -0.2680
vn 0.8039 0.1733 -0.5690
vn 0.9883 0.1269 0.0847
vn -0.2879 -0.4613 0.8392
vn -0.6869 -0.1220 0.7164
vn -0.7754 0.3474 -0.5273
vn -0.5562 0.5375 0.6339
vn -0.5523 0.8167 -0.1676
vn -0.2951 0.1905 -0.9363
vn 0.7754 -0.3474 0.5273
vn 0.7196 0.6710 0.1787
vn 0.2123 0.4261 0.8794
vn -0.0000 -0.9393 -0.3432
vn 0.5523 -0.8167 0.1676
vn -0.1991 0.6602 -0.7242
vn 0.4880 0.5165 -0.7036
vn 0.6659 0.1400 0.7327
vn 0.2951 -0.1905 0.9363
vn -0.7460 0.5324 0.4000
vn -0.9709 -0.1555 -0.1822
vn 0.0528 0.9506 0.3058
vn 0.4328 0.8022 -0.4113
vt 0.272728 0.157461
vt 0.319660 0.076171
vt 0.407614 0.076171
vt 0.454546 0.157461
vt 0.683296 0.076171
vt 0.771250 0.076171
vt 0.818182 0.157461
vt 0.636364 0.157461
vt 0.137842 0.076171
vt 0.225796 0.076171
vt 0.090910 0.157461
vt 0.501478 0.076171
vt 0.589432 0.076171
vt 0.130155 0.314921
vt 0.086171 0.314921
vt 0.045392 0.236300
vt 0.727273 0.314921
vt 0.656811 0.314921
vt 0.565141 0.280823
vt 0.525769 0.280823
vt 0.506082 0.314921
vt 0.461255 0.314921
vt 0.412446 0.230381
vt 0.601523 0.412035
vt 0.650392 0.448085
vt 0.622336 0.448085
vt 0.412446 0.399462
vt 0.489387 0.412035
vt 0.468574 0.448085
vt 0.440518 0.448085
vt 0.314828 0.230381
vt 1.000000 0.157461
vt 0.954483 0.236300
vt 0.863699 0.236299
vt 0.045393 0.393544
vt 0.086171 0.314921
vt 0.097162 0.447296
vt 0.076882 0.448085
vt 0.773860 0.314921
vt 0.863699 0.393544
vt 0.832210 0.448085
vt 0.804154 0.448085
vt 0.865114 0.076171
vt 0.953068 0.076171
vt 0.314828 0.230381
vt 0.252146 0.314921
vt 0.565141 0.280823
vt 0.525769 0.280823
vt 0.286756 0.448085
vt 0.314828 0.399462
vt 0.250014 0.447296
s 0
f 91/146/76 101/147/76 100/148/76 95/149/76
f 99/150/77 98/151/77 93/152/77 94/153/77
f 102/154/78 101/155/78 91/146/78 92/156/78
f 100/157/79 99/158/79 94/153/79 95/149/79
f 92/156/80 91/146/80 96/159/80
f 92/156/81 96/159/81 110/160/81 109/161/81
f 94/153/82 93/152/82 97/162/82
f 94/153/83 97/162/83 115/163/83 114/164/83
f 95/149/84 113/165/84 117/166/84 105/167/84 104/168/84
f 116/169/85 115/163/85 97/162/85 121/170/85 120/171/85
f 106/172/86 105/167/86 117/166/86 116/173/86 120/174/86 119/175/86
f 91/146/87 95/149/87 104/168/87 103/176/87
f 93/152/88 92/177/88 109/178/88 108/179/88
f 111/180/89 110/181/89 96/159/89 118/182/89 122/183/89
f 97/162/90 112/184/90 111/185/90 122/186/90 121/187/90
f 98/188/91 99/150/91 100/157/91 101/147/91 102/154/91
f 98/188/92 102/189/92 92/177/92 93/152/92
f 103/190/93 104/168/93 105/167/93 106/172/93 107/191/93
f 91/146/94 103/190/94 107/191/94 96/159/94
f 108/179/95 109/178/95 110/160/95 111/180/95 112/184/95
f 93/152/96 108/179/96 112/184/96 97/162/96
f 113/165/97 114/192/97 115/163/97 116/169/97 117/166/97
f 95/149/98 94/153/98 114/192/98 113/193/98
f 118/182/99 119/194/99 120/174/99 121/170/99 122/186/99
f 96/159/100 107/191/100 106/195/100 119/194/100 118/196/100
o Icosphere.004
v 1.145723 -0.709637 0.730695
v 0.217419 -0.709637 0.547004
v 0.105252 -0.709637 -0.392636
v 0.964249 -0.709637 -0.789660
v 1.586215 -0.533999 0.011082
v 0.803654 -0.152229 0.771525
v 0.203422 0.034703 0.261026
v 0.470247 0.095350 -0.730695
v 0.807985 0.592857 0.000000
v 1.365466 -0.225000 0.527169
v 1.549147 -0.225000 0.198418
v 1.466080 0.095350 0.018699
v 1.231061 0.293336 0.236384
v 1.168873 0.095350 0.550635
v 1.432947 -0.037301 -0.472586
v 1.326983 -0.037302 -0.586991
v 1.245576 0.095350 -0.577275
v 1.301232 0.177334 -0.456864
v 1.417034 0.095350 -0.392162
v 0.377885 -0.902650 -0.240308
v 0.903626 -0.902647 -0.483307
v 1.246008 -0.828267 0.006237
v 1.014695 -0.902647 0.447217
v 0.446533 -0.902647 0.334791
vn 0.6379 -0.7410 0.2096
vn -0.2547 -0.7947 -0.5511
vn -0.1178 -0.7947 0.5955
vn 0.6211 -0.7127 -0.3261
vn -0.1907 -0.1876 0.9636
vn -0.9926 0.0269 0.1185
vn -0.4121 -0.1876 -0.8916
vn 0.1907 0.1876 -0.9636
vn 0.9753 0.1876 -0.1164
vn -0.5676 0.2860 0.7721
vn -0.9192 0.3212 -0.2277
vn 0.1178 0.7947 -0.5955
vn 0.8575 -0.1876 0.4791
vn -0.3434 0.6766 0.6514
vn -0.7045 0.6943 -0.1471
vn 0.6028 0.7947 -0.0720
vn 0.0367 0.7534 0.6566
vn 0.7808 0.4472 0.4363
vn 0.4121 0.1876 0.8916
vn 0.6562 0.4472 -0.6078
vn 0.7774 -0.2752 -0.5656
vn 0.0628 -0.9980 -0.0075
vn -0.6028 -0.7947 0.0720
vt 0.272728 0.157461
vt 0.307997 0.096373
vt 0.403641 0.107963
vt 0.434711 0.191817
vt 0.671633 0.096373
vt 0.782913 0.096372
vt 0.818182 0.157461
vt 0.636364 0.157461
vt 0.126179 0.096373
vt 0.237459 0.096373
vt 0.090910 0.157461
vt 0.483123 0.107963
vt 0.601095 0.096373
vt 0.209779 0.266493
vt 1.000000 0.157461
vt 0.927455 0.318622
vt 0.727273 0.314921
vt 0.575417 0.314921
vt 0.560436 0.288973
vt 0.530474 0.288974
vt 0.515493 0.314921
vt 0.435993 0.314921
vt 0.399815 0.252259
vt 0.051388 0.303058
vt 0.560436 0.340869
vt 0.636364 0.472382
vt 0.327459 0.252259
vt 0.090910 0.472382
vt 0.818182 0.472382
vt 0.399815 0.377584
vt 0.435993 0.314921
vt 0.530474 0.340869
vt 0.454546 0.472382
vt 0.291281 0.314921
vt 0.327459 0.377584
vt 0.272728 0.472382
vt 0.291281 0.314921
vt 0.530474 0.288974
vt 0.853451 0.096372
vt 0.964731 0.096373
s 0
f 123/197/101 145/198/101 144/199/101 127/200/101
f 143/201/102 142/202/102 125/203/102 126/204/102
f 146/205/103 145/206/103 123/197/103 124/207/103
f 144/208/104 143/209/104 126/204/104 127/200/104
f 124/207/105 123/197/105 128/210/105
f 125/203/106 124/211/106 129/212/106
f 126/204/107 125/203/107 130/213/107
f 126/204/108 130/213/108 139/214/108 138/215/108
f 127/200/109 137/216/109 141/217/109 134/218/109 133/219/109
f 124/207/110 128/210/110 129/220/110
f 125/203/111 129/212/111 130/213/111
f 140/221/112 139/214/112 130/213/112 131/222/112
f 123/197/113 127/200/113 133/219/113 132/223/113
f 129/220/114 128/210/114 131/224/114
f 130/213/115 129/212/115 131/225/115
f 135/226/116 134/227/116 141/217/116 140/228/116 131/229/116
f 128/210/117 136/230/117 135/231/117 131/232/117
f 132/223/118 133/219/118 134/218/118 135/226/118 136/230/118
f 123/197/119 132/223/119 136/233/119 128/210/119
f 137/216/120 138/215/120 139/214/120 140/221/120 141/217/120
f 127/200/121 126/204/121 138/215/121 137/234/121
f 142/235/122 143/201/122 144/208/122 145/198/122 146/205/122
f 142/235/123 146/236/123 124/211/123 125/203/123
o Icosphere.005
v -1.480008 -0.817721 -0.235124
v -1.769160 -0.817721 -0.883782
v -0.898054 -0.817721 -1.225974
v -0.070534 -0.817721 -0.788787
v -0.430208 -0.817721 -0.176414
v -1.788651 -0.322836 -0.535247
v -0.379177 -0.322836 -1.088910
v -1.209966 -0.560165 -0.163791
v -0.929593 -0.016982 -0.662017
v -1.135269 -0.596608 -1.190966
v -1.627952 -0.322836 -0.808850
v -1.152714 -0.153636 -0.878981
v -0.848215 -0.322836 -1.115141
v -0.335988 -0.680653 -0.249489
v -0.075932 -0.680657 -0.692256
v -0.299095 -0.322836 -0.909259
v -0.697067 -0.101692 -0.600597
v -0.745457 -0.461730 -0.278456
v -1.769160 -0.817721 -0.883782
v -1.629747 -0.329129 -0.809803
v -1.143327 -0.599419 -1.187061
v -0.911062 -0.961863 -0.993362
v -0.424861 -0.961861 -0.736499
v -0.636185 -0.961861 -0.376706
v -1.252984 -0.961861 -0.411200
v -1.422872 -0.961861 -0.792313
vn -0.0339 -0.7943 0.6065
vn 0.2629 -0.8267 -0.4975
vn -0.4192 -0.8885 0.1869
vn 0.3957 -0.8885 0.2324
vn -0.0546 -0.2130 0.9755
vn -0.8692 -0.3071 0.3875
vn -0.3551 -0.2379 -0.9040
vn 0.4537 -0.2379 -0.8588
vn 0.8692 0.3071 -0.3875
vn -0.4537 0.2379 0.8588
vn -0.3552 0.9112 -0.2086
vn 0.0311 0.8310 -0.5554
vn 0.3763 0.9112 -0.1677
vn 0.0440 0.6629 0.7475
vn -0.1510 0.7094 0.6884
vn 0.8206 -0.3071 0.4820
vn -0.8206 0.3071 -0.4820
vn 0.0546 0.2130 -0.9755
vn 0.5767 0.6554 0.4877
vn 0.1427 0.3875 0.9108
vn -0.4940 0.2663 -0.8277
vn -0.3117 0.5350 -0.7852
vn -0.0000 -1.0000 -0.0000
vn -0.2057 -0.8267 -0.5238
vt 0.272728 0.157461
vt 0.310224 0.092515
vt 0.417050 0.092515
vt 0.454546 0.157461
vt 0.673860 0.092515
vt 0.780685 0.092514
vt 0.818182 0.157461
vt 0.636364 0.157461
vt 0.128406 0.092515
vt 0.235232 0.092515
vt 0.090910 0.157461
vt 0.492042 0.092515
vt 0.598868 0.092515
vt 0.320040 0.239409
vt 0.181819 0.314921
vt 1.000000 0.157461
vt 0.860595 0.226920
vt 0.858800 0.227814
vt 0.727273 0.314921
vt 0.676917 0.314921
vt 0.611186 0.201072
vt 0.050292 0.402029
vt 0.100584 0.314921
vt 0.090910 0.472382
vt 0.808507 0.314921
vt 0.858800 0.402029
vt 0.818182 0.472382
vt 0.611186 0.428772
vt 0.636364 0.472382
vt 0.413534 0.270729
vt 0.479724 0.428772
vt 0.454546 0.472382
vt 0.272728 0.472382
vt 0.479725 0.201073
vt 0.100584 0.314921
vt 0.100461 0.312919
vt 0.858800 0.227814
vt 0.479725 0.201073
vt 0.860595 0.226920
vt 0.112019 0.312919
vt 0.855679 0.092514
vt 0.962504 0.092515
s 0
f 147/237/124 171/238/124 170/239/124 151/240/124
f 169/241/125 168/242/125 149/243/125 150/244/125
f 172/245/126 171/246/126 147/237/126 148/247/126
f 170/248/127 169/249/127 150/244/127 151/240/127
f 147/237/128 151/240/128 154/250/128
f 148/247/129 147/237/129 152/251/129
f 149/243/130 148/252/130 165/252/130 167/253/130 156/254/130
f 150/244/131 149/243/131 153/255/131
f 150/244/132 153/255/132 162/256/132 161/257/132
f 147/237/133 154/250/133 152/251/133
f 158/258/134 157/259/134 152/251/134 155/260/134
f 153/255/135 159/261/135 158/262/135 155/263/135
f 163/264/136 162/256/136 153/255/136 155/265/136
f 154/250/137 164/266/137 163/267/137 155/268/137
f 152/251/138 154/250/138 155/269/138
f 151/240/139 150/244/139 161/257/139 160/270/139
f 148/247/140 152/251/140 157/271/140 166/272/140 165/247/140
f 149/243/141 156/273/141 159/261/141 153/255/141
f 160/274/142 161/257/142 162/256/142 163/264/142 164/266/142
f 151/240/143 160/274/143 164/266/143 154/250/143
f 165/252/144 166/272/144 167/275/144
f 156/273/145 167/275/145 166/276/145 157/271/145 158/258/145 159/261/145
f 168/277/146 169/241/146 170/248/146 171/238/146 172/245/146
f 168/277/147 172/278/147 148/252/147 149/243/147
