# Blender 4.0.2
# www.blender.org
mtllib tree_trunk2.mtl
o Icosphere.003
v -0.060081 -0.949487 -0.585686
v -0.060080 0.578187 -0.233896
v 0.756881 -0.949488 -0.247290
v 0.508128 0.578187 0.001463
v 1.095277 -0.949488 0.569671
v 0.743487 0.578187 0.569671
v 0.756881 -0.949488 1.386633
v 0.508128 0.578187 1.137879
v -0.060081 -0.949487 1.725029
v -0.060081 0.578187 1.373239
v -0.877042 -0.949488 1.386632
v -0.628288 0.578187 1.137879
v -1.215438 -0.949487 0.569671
v -0.863648 0.578187 0.569671
v -0.877041 -0.949487 -0.247290
v -0.628288 0.578187 0.001464
v -0.060080 1.485206 -0.080222
v 0.399464 1.485206 0.110127
v 0.589813 1.485206 0.569671
v 0.399464 1.485206 1.029215
v -0.060080 1.485206 1.219565
v -0.519624 1.485206 1.029215
v -0.709974 1.485207 0.569671
v -0.519624 1.485206 0.110127
v -0.031303 3.146158 -0.112653
v 0.459326 3.146158 0.090572
v 0.662551 3.146158 0.581200
v 0.459326 3.146158 1.071829
v -0.031303 3.146158 1.275054
v -0.521932 3.146158 1.071829
v -0.725157 3.146158 0.581201
v -0.521932 3.146158 0.090572
v 0.872587 4.345772 0.758667
v 1.156363 4.292162 0.868053
v 1.311446 4.105003 1.222514
v 1.156363 4.020811 1.614410
v 0.781958 4.088905 1.814174
v -0.113588 3.880165 0.581200
v 0.597091 4.342150 1.308733
v 1.478545 6.351303 1.211331
v 1.847092 6.300694 1.365421
v 1.999749 6.279732 1.737427
v 1.847092 6.300694 2.109432
v 1.478545 6.351303 2.263523
v 1.296570 6.376293 1.737427
v 1.690940 8.321735 1.556791
v 1.817481 8.304358 1.609698
v 1.869896 8.297159 1.737427
v 1.817481 8.304358 1.865156
v 1.690940 8.321735 1.918062
v 1.628458 8.330313 1.737427
v -1.352879 4.208636 -0.990730
v -1.461635 4.528654 0.024137
v -1.864707 4.452590 -0.124487
v -2.031665 4.268952 -0.483297
v -1.864707 4.085316 -0.842106
v -1.103469 4.450212 -0.483297
v -1.931713 6.678559 -0.992053
v -1.931713 6.678559 -0.278682
v -2.183928 6.678559 -0.383153
v -2.288399 6.678559 -0.635368
v -2.183928 6.678559 -0.887582
v -1.707598 6.678559 -0.635368
v -2.093711 8.430418 -0.765621
v -2.093711 8.430418 -0.505114
v -2.185814 8.430418 -0.543265
v -2.223964 8.430417 -0.635368
v -2.185814 8.430418 -0.727471
v -2.011869 8.430418 -0.635368
v -0.060081 -1.575922 -1.364548
v 1.307619 -1.575922 -0.798028
v 1.874139 -1.575922 0.569671
v 1.307619 -1.575922 1.937371
v -0.060080 -1.575922 2.503891
v -1.427781 -1.575922 1.937371
v -1.994300 -1.575922 0.569671
v -1.427781 -1.575922 -0.798028
vn 0.3743 0.2081 -0.9037
vn 0.9037 0.2081 -0.3743
vn 0.9037 0.2081 0.3743
vn 0.3743 0.2081 0.9037
vn -0.3743 0.2081 0.9037
vn -0.9037 0.2081 0.3743
vn -0.9128 0.1546 0.3781
vn -0.3743 0.2081 -0.9037
vn -0.9037 0.2081 -0.3743
vn -0.6066 0.7542 -0.2513
vn -0.9239 -0.0058 -0.3827
vn 0.9128 0.1546 -0.3781
vn 0.3781 0.1546 -0.9128
vn -0.3781 0.1546 0.9128
vn -0.3781 0.1546 -0.9128
vn 0.3781 0.1546 0.9128
vn -0.9128 0.1546 -0.3781
vn 0.9128 0.1546 0.3781
vn -0.3827 -0.0114 -0.9238
vn -0.3826 -0.0242 0.9236
vn 0.9230 -0.0431 0.3823
vn 0.3826 -0.0247 -0.9236
vn 0.8649 -0.2661 -0.4256
vn -0.9238 -0.0111 0.3827
vn 0.3824 -0.0375 0.9232
vn 0.9232 -0.0378 -0.3824
vn 0.7105 -0.6668 0.2249
vn 0.2778 -0.6512 0.7063
vn -0.7744 0.3929 0.4959
vn 0.3713 0.3509 -0.8597
vn -0.2760 0.7921 -0.5445
vn -0.9003 0.2152 0.3782
vn 0.3856 0.0927 -0.9180
vn 0.8839 -0.1878 -0.4282
vn 0.8798 -0.3462 0.3258
vn -0.8568 0.3579 -0.3713
vn 0.3717 -0.2964 0.8798
vn 0.3967 0.1169 0.9105
vn -0.9308 0.1581 0.3295
vn 0.3967 0.1169 -0.9105
vn -0.9308 0.1581 -0.3295
vn 0.9247 0.0595 -0.3761
vn 0.9247 0.0595 0.3761
vn -0.7814 -0.4456 0.4369
vn -0.5765 -0.8136 -0.0753
vn 0.7384 0.4695 -0.4840
vn -0.1321 -0.7559 -0.6412
vn 0.1963 0.8411 0.5041
vn -0.3658 0.3913 0.8444
vn -0.3047 -0.0628 -0.9504
vn 0.8126 0.2539 0.5245
vn -0.3652 0.0534 0.9294
vn 0.8365 0.1939 -0.5126
vn -0.9028 -0.0746 0.4235
vn -0.9202 -0.1206 -0.3725
vn -0.3813 0.0837 -0.9206
vn 0.8377 0.1455 0.5264
vn -0.3813 0.0837 0.9206
vn 0.8377 0.1455 -0.5264
vn -0.9233 0.0340 0.3825
vn -0.9233 0.0340 -0.3825
vn 0.1360 0.9907 -0.0000
vn -0.0000 1.0000 -0.0000
vn -0.0000 -1.0000 -0.0000
vn 0.6066 0.7542 0.2513
vn -0.6066 0.7542 0.2513
vn 0.6066 0.7542 -0.2513
vn 0.2513 0.7542 -0.6066
vn -0.2513 0.7542 0.6066
vn -0.2513 0.7542 -0.6066
vn 0.2513 0.7542 0.6066
s 0
usemtl Material.001
f 1//1 2//1 4//1 3//1
f 3//2 4//2 6//2 5//2
f 5//3 6//3 8//3 7//3
f 7//4 8//4 10//4 9//4
f 9//5 10//5 12//5 11//5
f 11//6 12//6 14//6 13//6
f 14//7 12//7 22//7 23//7
f 15//8 16//8 2//8 1//8
f 13//9 14//9 16//9 15//9
f 13//10 15//10 77//10 76//10
f 23//11 31//11 32//11 24//11
f 6//12 4//12 18//12 19//12
f 4//13 2//13 17//13 18//13
f 12//14 10//14 21//14 22//14
f 2//15 16//15 24//15 17//15
f 10//16 8//16 20//16 21//16
f 16//17 14//17 23//17 24//17
f 8//18 6//18 19//18 20//18
f 24//19 32//19 25//19 17//19
f 21//20 29//20 30//20 22//20
f 19//21 27//21 28//21 20//21
f 17//22 25//22 26//22 18//22
f 27//23 26//23 34//23 35//23
f 22//24 30//24 31//24 23//24
f 20//25 28//25 29//25 21//25
f 18//26 26//26 27//26 19//26
f 28//27 27//27 35//27 36//27
f 29//28 28//28 36//28 37//28
f 38//29 29//29 37//29 39//29
f 26//30 25//30 33//30 34//30
f 25//31 38//31 39//31 33//31
f 39//32 37//32 44//32 45//32
f 34//33 33//33 40//33 41//33
f 35//34 34//34 41//34 42//34
f 36//35 35//35 42//35 43//35
f 33//36 39//36 45//36 40//36
f 37//37 36//37 43//37 44//37
f 44//38 43//38 49//38 50//38
f 45//39 44//39 50//39 51//39
f 41//40 40//40 46//40 47//40
f 40//41 45//41 51//41 46//41
f 42//42 41//42 47//42 48//42
f 43//43 42//43 48//43 49//43
f 31//44 30//44 54//44 55//44
f 32//45 31//45 55//45 56//45
f 38//46 25//46 52//46 57//46
f 25//47 32//47 56//47 52//47
f 29//48 38//48 57//48 53//48
f 30//49 29//49 53//49 54//49
f 52//50 56//50 62//50 58//50
f 53//51 57//51 63//51 59//51
f 54//52 53//52 59//52 60//52
f 57//53 52//53 58//53 63//53
f 55//54 54//54 60//54 61//54
f 56//55 55//55 61//55 62//55
f 58//56 62//56 68//56 64//56
f 59//57 63//57 69//57 65//57
f 60//58 59//58 65//58 66//58
f 63//59 58//59 64//59 69//59
f 61//60 60//60 66//60 67//60
f 62//61 61//61 67//61 68//61
f 47//62 46//62 51//62 50//62 49//62 48//62
f 66//63 65//63 69//63 64//63 68//63 67//63
f 70//64 71//64 72//64 73//64 74//64 75//64 76//64 77//64
f 5//65 7//65 73//65 72//65
f 11//66 13//66 76//66 75//66
f 3//67 5//67 72//67 71//67
f 1//68 3//68 71//68 70//68
f 9//69 11//69 75//69 74//69
f 15//70 1//70 70//70 77//70
f 7//71 9//71 74//71 73//71
