# Blender 4.0.2
# www.blender.org
mtllib tree_head2.mtl
o Icosphere.001
v 1.871279 11.111559 0.664752
v 1.948181 12.551138 1.711390
v 1.031535 11.116438 2.235916
v 0.236618 10.416928 0.803233
v 0.662004 11.419341 -0.606732
v 1.719801 12.738341 -0.045449
v 0.361044 12.746222 2.496741
v -0.696752 11.427221 1.935458
v -0.925133 11.614424 0.178619
v -0.008486 13.049124 -0.345907
v 0.786430 13.748634 1.086776
v -0.848230 13.054004 1.225256
v 2.934177 7.287725 -1.081253
v 4.267651 8.088043 -0.060260
v 2.494036 8.172663 0.494896
v 1.427894 8.377672 -1.015878
v 2.542640 8.419750 -2.504735
v 4.297690 8.240749 -1.914118
v 3.585502 9.672621 0.636137
v 1.830453 9.851621 0.045520
v 1.860492 10.004328 -1.808339
v 3.634107 9.919708 -2.363494
v 4.700249 9.714699 -0.852721
v 3.193966 10.804646 -0.787346
v -2.282337 7.776644 0.989184
v -0.948862 8.576962 2.010177
v -2.722477 8.661582 2.565333
v -3.788619 8.866590 1.054559
v -2.673873 8.908669 -0.434298
v -0.918824 8.729669 0.156319
v -1.631011 10.161539 2.706574
v -3.386060 10.340540 2.115957
v -3.356022 10.493246 0.262098
v -1.582407 10.408627 -0.293058
v -0.516265 10.203618 1.217716
v -2.022547 11.293564 1.283091
v -1.713814 7.828081 -0.022094
v 1.109701 7.496190 1.619262
v -1.133032 9.668157 2.633700
v -2.519152 11.010539 -0.022094
v -1.133033 9.668158 -2.677887
v 1.109701 7.496191 -1.663451
v 2.049403 10.473539 2.633699
v -0.193330 12.645506 1.619263
v -0.193330 12.645506 -1.663450
v 2.049403 10.473539 -2.677887
v 3.435523 9.131157 -0.022094
v 2.630185 12.313616 -0.022094
v -1.634381 4.889222 -1.842739
v 1.085874 4.569469 -0.261409
v -1.074839 6.662004 0.715929
v -2.410268 7.955294 -1.842739
v -1.074840 6.662004 -4.401406
v 1.085874 4.569469 -3.424069
v 1.991211 7.437932 0.715929
v -0.169504 9.530468 -0.261409
v -0.169504 9.530468 -3.424069
v 1.991210 7.437932 -4.401406
v 3.326638 6.144643 -1.842739
v 2.550752 9.210714 -1.842739
v 1.163253 7.290469 2.046871
v 0.094392 8.298948 4.034682
v -0.306470 5.921674 3.488119
v -0.448445 5.716706 1.028690
v -0.135320 7.967348 0.055282
v 0.200167 9.563233 1.913091
v -2.177912 7.348454 4.245052
v -2.513399 5.752569 2.387244
v -2.407623 7.016854 0.265653
v -2.006762 9.394129 0.812216
v -1.864787 9.599095 3.271645
v -3.476485 8.025333 2.253464
v -0.207422 5.058621 1.139736
v 2.786086 4.706749 2.879912
v 0.408326 7.009481 3.955425
v -1.061247 8.432684 1.139736
v 0.408326 7.009482 -1.675952
v 2.786085 4.706749 -0.600440
v 3.782364 7.863353 3.955425
v 1.404604 10.166085 2.879913
v 1.404604 10.166085 -0.600440
v 3.782363 7.863353 -1.675952
v 5.251936 6.440151 1.139736
v 4.398112 9.814213 1.139736
v -2.494426 5.756413 -2.531494
v -0.722614 5.559722 -0.529356
v -3.323891 5.106139 -0.066604
v -4.742139 6.834628 -1.545637
v -3.017325 8.356463 -2.922472
v -0.533147 7.568516 -2.294365
v -1.875287 6.516371 1.693912
v -4.359464 7.304318 1.065804
v -4.169998 9.313112 -0.699204
v -1.568721 9.766695 -1.161956
v -0.150473 8.038207 0.317077
v -2.398186 9.116422 1.302934
vn 0.8211 -0.3637 0.4400
vn 0.9915 0.0378 -0.1249
vn 0.3973 -0.8921 0.2151
vn 0.3058 -0.8171 -0.4887
vn 0.6730 -0.2424 -0.6988
vn 0.7229 0.6907 -0.0204
vn 0.4472 0.0410 0.8935
vn -0.2385 -0.8140 0.5297
vn -0.3865 -0.6926 -0.6090
vn 0.2077 0.2373 -0.9490
vn 0.3865 0.6926 0.6090
vn -0.2077 -0.2373 0.9490
vn -0.7229 -0.6907 0.0204
vn -0.4472 -0.0410 -0.8935
vn 0.2385 0.8140 -0.5297
vn -0.3058 0.8171 0.4887
vn -0.6730 0.2424 0.6988
vn -0.9915 -0.0378 0.1249
vn -0.8211 0.3637 -0.4400
vn -0.3973 0.8921 -0.2151
vn 0.1194 -0.8511 0.5112
vn 0.5470 -0.8350 -0.0599
vn -0.5538 -0.7825 0.2847
vn -0.5423 -0.7239 -0.4265
vn 0.1381 -0.7563 -0.6394
vn 0.9657 -0.2596 -0.0057
vn 0.2738 -0.2857 0.9184
vn -0.8155 -0.1746 0.5518
vn -0.7969 -0.0798 -0.5989
vn 0.3040 -0.1324 -0.9434
vn 0.7968 0.0798 0.5989
vn -0.3040 0.1324 0.9434
vn -0.9657 0.2596 0.0057
vn -0.2738 0.2857 -0.9184
vn 0.8155 0.1746 -0.5518
vn 0.5423 0.7239 0.4265
vn -0.1380 0.7563 0.6394
vn -0.5470 0.8350 0.0599
vn -0.1194 0.8511 -0.5112
vn 0.5538 0.7825 -0.2847
vn 0.1380 -0.7563 -0.6394
vn -0.7968 -0.0798 -0.5989
vn 0.7969 0.0798 0.5989
vn -0.4181 -0.7013 0.5774
vn -0.1167 -0.9932 -0.0000
vn -0.9056 -0.2292 0.3568
vn -0.9056 -0.2292 -0.3568
vn -0.4181 -0.7013 -0.5774
vn 0.5751 -0.8181 -0.0000
vn 0.0875 -0.3459 0.9342
vn -0.7013 0.4181 0.5774
vn -0.7013 0.4181 -0.5774
vn 0.0875 -0.3459 -0.9342
vn 0.7013 -0.4181 0.5774
vn -0.0875 0.3459 0.9342
vn -0.5751 0.8181 -0.0000
vn -0.0875 0.3459 -0.9342
vn 0.7013 -0.4181 -0.5774
vn 0.9056 0.2292 0.3568
vn 0.4181 0.7013 0.5774
vn 0.1167 0.9932 -0.0000
vn 0.4181 0.7013 -0.5774
vn 0.9056 0.2292 -0.3568
vn 0.7888 -0.2610 0.5565
vn 0.8792 0.3888 0.2755
vn 0.6919 -0.7217 0.0202
vn 0.7225 -0.3567 -0.5923
vn 0.8382 0.3296 -0.4345
vn 0.3389 0.8007 0.4940
vn 0.1927 -0.2506 0.9487
vn 0.0360 -0.9961 0.0809
vn 0.0854 -0.4055 -0.9101
vn 0.2726 0.7049 -0.6548
vn -0.0854 0.4055 0.9101
vn -0.2726 -0.7049 0.6548
vn -0.3389 -0.8007 -0.4940
vn -0.1927 0.2506 -0.9487
vn -0.0360 0.9961 -0.0809
vn -0.7225 0.3567 0.5923
vn -0.8382 -0.3296 0.4345
vn -0.8792 -0.3888 -0.2755
vn -0.7888 0.2610 -0.5565
vn -0.6919 0.7217 -0.0202
vn 0.1313 -0.9686 -0.2113
vn 0.5904 -0.5634 -0.5779
vn -0.5300 -0.7588 -0.3785
vn -0.4796 -0.2240 -0.8484
vn 0.2129 -0.1033 -0.9716
vn 0.9761 -0.1880 -0.1092
vn 0.2332 -0.8435 0.4838
vn -0.8369 -0.5041 0.2133
vn -0.7553 0.3611 -0.5470
vn 0.3652 0.5565 -0.7463
vn 0.7553 -0.3611 0.5470
vn -0.3652 -0.5565 0.7463
vn -0.9761 0.1880 0.1092
vn -0.2332 0.8435 -0.4838
vn 0.8369 0.5041 -0.2133
vn 0.4796 0.2240 0.8484
vn -0.2129 0.1033 0.9716
vn -0.5904 0.5634 0.5779
vn -0.1313 0.9686 0.2113
vn 0.5300 0.7588 0.3785
s 0
usemtl Material.002
f 1//1 2//1 3//1
f 2//2 1//2 6//2
f 1//3 3//3 4//3
f 1//4 4//4 5//4
f 1//5 5//5 6//5
f 2//6 6//6 11//6
f 3//7 2//7 7//7
f 4//8 3//8 8//8
f 5//9 4//9 9//9
f 6//10 5//10 10//10
f 2//11 11//11 7//11
f 3//12 7//12 8//12
f 4//13 8//13 9//13
f 5//14 9//14 10//14
f 6//15 10//15 11//15
f 7//16 11//16 12//16
f 8//17 7//17 12//17
f 9//18 8//18 12//18
f 10//19 9//19 12//19
f 11//20 10//20 12//20
f 13//21 14//21 15//21
f 14//22 13//22 18//22
f 13//23 15//23 16//23
f 13//24 16//24 17//24
f 13//25 17//25 18//25
f 14//26 18//26 23//26
f 15//27 14//27 19//27
f 16//28 15//28 20//28
f 17//29 16//29 21//29
f 18//30 17//30 22//30
f 14//31 23//31 19//31
f 15//32 19//32 20//32
f 16//33 20//33 21//33
f 17//34 21//34 22//34
f 18//35 22//35 23//35
f 19//36 23//36 24//36
f 20//37 19//37 24//37
f 21//38 20//38 24//38
f 22//39 21//39 24//39
f 23//40 22//40 24//40
f 25//21 26//21 27//21
f 26//22 25//22 30//22
f 25//23 27//23 28//23
f 25//24 28//24 29//24
f 25//41 29//41 30//41
f 26//26 30//26 35//26
f 27//27 26//27 31//27
f 28//28 27//28 32//28
f 29//42 28//42 33//42
f 30//30 29//30 34//30
f 26//43 35//43 31//43
f 27//32 31//32 32//32
f 28//33 32//33 33//33
f 29//34 33//34 34//34
f 30//35 34//35 35//35
f 31//36 35//36 36//36
f 32//37 31//37 36//37
f 33//38 32//38 36//38
f 34//39 33//39 36//39
f 35//40 34//40 36//40
f 37//44 38//44 39//44
f 38//45 37//45 42//45
f 37//46 39//46 40//46
f 37//47 40//47 41//47
f 37//48 41//48 42//48
f 38//49 42//49 47//49
f 39//50 38//50 43//50
f 40//51 39//51 44//51
f 41//52 40//52 45//52
f 42//53 41//53 46//53
f 38//54 47//54 43//54
f 39//55 43//55 44//55
f 40//56 44//56 45//56
f 41//57 45//57 46//57
f 42//58 46//58 47//58
f 43//59 47//59 48//59
f 44//60 43//60 48//60
f 45//61 44//61 48//61
f 46//62 45//62 48//62
f 47//63 46//63 48//63
f 49//44 50//44 51//44
f 50//45 49//45 54//45
f 49//46 51//46 52//46
f 49//47 52//47 53//47
f 49//48 53//48 54//48
f 50//49 54//49 59//49
f 51//50 50//50 55//50
f 52//51 51//51 56//51
f 53//52 52//52 57//52
f 54//53 53//53 58//53
f 50//54 59//54 55//54
f 51//55 55//55 56//55
f 52//56 56//56 57//56
f 53//57 57//57 58//57
f 54//58 58//58 59//58
f 55//59 59//59 60//59
f 56//60 55//60 60//60
f 57//61 56//61 60//61
f 58//62 57//62 60//62
f 59//63 58//63 60//63
f 61//64 62//64 63//64
f 62//65 61//65 66//65
f 61//66 63//66 64//66
f 61//67 64//67 65//67
f 61//68 65//68 66//68
f 62//69 66//69 71//69
f 63//70 62//70 67//70
f 64//71 63//71 68//71
f 65//72 64//72 69//72
f 66//73 65//73 70//73
f 62//74 71//74 67//74
f 63//75 67//75 68//75
f 64//76 68//76 69//76
f 65//77 69//77 70//77
f 66//78 70//78 71//78
f 67//79 71//79 72//79
f 68//80 67//80 72//80
f 69//81 68//81 72//81
f 70//82 69//82 72//82
f 71//83 70//83 72//83
f 73//44 74//44 75//44
f 74//45 73//45 78//45
f 73//46 75//46 76//46
f 73//47 76//47 77//47
f 73//48 77//48 78//48
f 74//49 78//49 83//49
f 75//50 74//50 79//50
f 76//51 75//51 80//51
f 77//52 76//52 81//52
f 78//53 77//53 82//53
f 74//54 83//54 79//54
f 75//55 79//55 80//55
f 76//56 80//56 81//56
f 77//57 81//57 82//57
f 78//58 82//58 83//58
f 79//59 83//59 84//59
f 80//60 79//60 84//60
f 81//61 80//61 84//61
f 82//62 81//62 84//62
f 83//63 82//63 84//63
f 85//84 86//84 87//84
f 86//85 85//85 90//85
f 85//86 87//86 88//86
f 85//87 88//87 89//87
f 85//88 89//88 90//88
f 86//89 90//89 95//89
f 87//90 86//90 91//90
f 88//91 87//91 92//91
f 89//92 88//92 93//92
f 90//93 89//93 94//93
f 86//94 95//94 91//94
f 87//95 91//95 92//95
f 88//96 92//96 93//96
f 89//97 93//97 94//97
f 90//98 94//98 95//98
f 91//99 95//99 96//99
f 92//100 91//100 96//100
f 93//101 92//101 96//101
f 94//102 93//102 96//102
f 95//103 94//103 96//103
